<?xml version="1.0" standalone="no"?>
<!DOCTYPE svg PUBLIC "-//W3C//DTD SVG 20010904//EN"
 "http://www.w3.org/TR/2001/REC-SVG-20010904/DTD/svg10.dtd">
<svg version="1.0" xmlns="http://www.w3.org/2000/svg"
 width="1021.000000pt" height="1080.000000pt" viewBox="0 0 1021.000000 1080.000000"
 preserveAspectRatio="xMidYMid meet">
<metadata>
Created by potrace 1.16, written by Peter Selinger 2001-2019
</metadata>
<g transform="translate(0.000000,1080.000000) scale(0.100000,-0.100000)"
fill="#000000" stroke="none">
<path d="M0 5400 l0 -5400 2523 2 c1432 0 2453 5 2362 9 -88 5 -209 13 -269
19 -124 12 -443 64 -526 85 -30 8 -86 21 -125 30 -435 99 -997 327 -1405 570
-78 47 -146 85 -150 85 -5 0 -10 4 -12 8 -1 4 -46 37 -98 72 -295 197 -676
527 -826 714 -21 27 -48 59 -59 70 -36 38 -120 137 -138 165 l-19 26 22 -25
c189 -216 449 -473 640 -631 687 -569 1596 -977 2425 -1088 335 -45 344 -45
755 -46 332 0 431 3 550 18 462 58 864 154 1260 302 405 151 810 376 1173 654
97 75 194 149 215 164 182 138 458 409 653 644 41 48 76 90 79 93 20 19 208
282 283 398 162 247 367 642 451 869 8 21 24 63 35 93 26 65 97 282 118 360
125 465 183 843 198 1295 7 230 -23 682 -60 905 -69 408 -197 841 -355 1200
-53 120 -201 416 -248 495 -153 256 -260 415 -401 594 -155 197 -218 266 -427
473 -171 169 -220 210 -514 430 -376 281 -427 314 -778 495 -242 124 -570 254
-807 318 -377 103 -602 147 -920 181 -221 24 -795 24 -965 1 -495 -70 -547
-78 -720 -118 -100 -23 -379 -105 -428 -126 -19 -8 -36 -13 -38 -11 -2 2 25
44 59 93 62 89 63 90 131 113 236 79 667 159 981 182 504 37 941 19 1349 -56
430 -78 812 -196 1241 -382 111 -48 368 -187 505 -272 137 -85 305 -193 310
-199 3 -3 76 -59 163 -124 284 -212 470 -387 781 -737 372 -417 728 -1018 918
-1550 65 -182 93 -267 114 -347 76 -294 84 -329 123 -538 61 -326 66 -389 66
-880 0 -465 -6 -555 -51 -820 -70 -412 -206 -879 -354 -1211 -38 -83 -203
-417 -230 -464 -15 -25 -48 -83 -75 -130 -70 -124 -195 -309 -294 -435 -100
-128 -99 -128 -290 -331 -86 -91 -219 -238 -251 -276 -20 -24 -198 -186 -310
-283 -281 -241 -883 -608 -1165 -710 -27 -10 -54 -22 -59 -27 -6 -4 -17 -8
-25 -8 -9 0 -29 -7 -44 -15 -33 -17 -198 -78 -332 -123 -431 -145 -736 -203
-1315 -251 -52 -5 1009 -9 2358 -10 l2452 -1 0 5400 0 5400 -5105 0 -5105 0 0
-5400z m3820 5290 c0 -40 -16 -87 -68 -200 -16 -36 -48 -108 -71 -161 -48
-115 -95 -195 -133 -228 -16 -13 -28 -30 -28 -36 0 -7 -7 -15 -15 -19 -8 -3
-15 -10 -15 -15 0 -13 55 6 71 25 14 17 29 18 29 1 0 -15 -156 -251 -217 -327
-24 -30 -69 -89 -100 -130 -164 -218 -301 -332 -639 -530 -96 -57 -121 -76
-113 -85 3 -2 26 8 51 24 25 16 56 32 69 36 22 7 21 6 -6 -17 -16 -13 -52 -40
-80 -58 -27 -19 -52 -36 -55 -40 -3 -3 -59 -47 -125 -97 -158 -120 -250 -198
-387 -325 -62 -58 -142 -132 -178 -164 -35 -32 -74 -68 -85 -79 -11 -11 -36
-33 -54 -50 l-34 -30 23 35 c13 19 27 37 30 40 25 22 117 139 158 203 30 45
90 114 144 165 51 48 112 105 135 127 24 23 105 73 185 114 79 41 154 83 168
94 l25 19 -25 -7 c-30 -9 -209 -102 -230 -120 -8 -7 -37 -24 -65 -38 -81 -40
-284 -241 -425 -421 -69 -88 -161 -205 -204 -260 -44 -56 -100 -128 -125 -161
-25 -33 -68 -82 -95 -109 -50 -50 -67 -50 -58 2 6 37 -9 21 -45 -48 -32 -59
-63 -84 -178 -145 -39 -20 -58 -34 -43 -31 30 7 34 2 18 -17 -13 -15 -131
-212 -152 -253 -8 -16 -31 -58 -51 -94 -75 -135 -212 -461 -301 -715 -40 -113
-124 -442 -156 -615 -24 -121 -41 -165 -33 -83 23 259 79 522 184 881 98 333
188 548 321 769 39 65 55 83 78 88 16 3 33 12 39 19 21 25 -83 -1 -209 -52
-69 -29 -133 -52 -142 -52 -9 0 -20 -4 -23 -10 -9 -14 0 -13 83 10 39 11 74
20 77 20 3 0 -8 -24 -24 -52 -60 -109 -191 -377 -234 -478 -126 -299 -253
-724 -312 -1045 -9 -49 -20 -112 -25 -140 -13 -70 -29 -209 -33 -280 -3 -59
-3 -58 -5 13 -2 87 22 393 44 542 54 378 193 887 319 1165 13 28 36 79 53 115
39 86 45 107 33 115 -6 3 -52 -8 -103 -24 -98 -32 -256 -69 -348 -81 -30 -4
-63 -10 -72 -15 -34 -14 -17 10 27 40 49 33 63 54 43 66 -7 4 -10 9 -8 11 3 2
40 21 84 43 43 22 99 55 125 73 25 17 49 32 53 32 16 0 107 72 123 98 10 15
41 59 70 97 77 103 304 447 360 545 26 47 59 99 72 116 12 17 23 38 23 47 0
21 17 22 36 2 11 -10 36 -15 79 -15 92 0 240 55 425 159 38 21 48 31 34 31
-12 0 -46 -16 -75 -36 -30 -20 -72 -43 -94 -51 -22 -8 -49 -19 -60 -23 -11 -5
-62 -23 -114 -40 -72 -24 -103 -30 -135 -26 -52 8 -65 16 -69 44 -2 12 -9 28
-15 34 -7 7 -12 17 -12 23 0 5 -7 23 -15 38 -8 15 -17 43 -21 62 -3 20 -11 32
-16 29 -6 -4 -8 -1 -6 7 3 8 15 13 27 12 15 -2 20 1 15 9 -5 8 2 9 27 5 19 -4
28 -3 21 1 -9 6 1 13 30 22 53 16 99 37 248 108 63 30 153 72 200 93 114 53
312 154 490 252 251 137 557 417 661 606 14 25 29 46 34 48 6 1 20 -12 32 -30
13 -17 34 -45 47 -60 l25 -28 -25 -65 c-13 -36 -32 -77 -41 -92 -37 -57 -190
-249 -238 -298 -27 -28 -66 -69 -86 -90 -44 -48 -278 -208 -379 -259 -41 -20
-87 -46 -102 -56 -14 -11 -29 -19 -32 -19 -14 0 -224 -130 -256 -159 -19 -17
-38 -31 -42 -31 -12 0 -9 -20 2 -20 6 0 55 31 108 70 53 38 142 93 197 121
226 116 355 189 420 239 47 36 219 217 274 288 33 42 87 111 120 153 45 57 65
93 81 147 l22 71 -35 43 c-56 70 -74 118 -43 118 8 0 16 3 18 8 2 4 21 16 43
27 126 63 376 225 472 307 34 29 94 76 134 103 90 62 256 196 328 263 30 28
58 49 62 46 5 -3 9 -23 9 -44z m-1364 -256 c21 -9 49 -28 63 -42 14 -15 45
-40 69 -56 62 -43 72 -61 72 -136 0 -36 7 -96 15 -135 9 -38 13 -82 9 -98 -12
-55 -120 -201 -220 -297 -147 -140 -182 -171 -259 -227 -38 -28 -83 -62 -100
-76 -93 -75 -808 -430 -1030 -511 -107 -39 -116 -38 -131 9 -35 113 -66 222
-68 240 -2 11 -8 31 -13 45 -6 14 -19 48 -28 76 l-18 50 34 75 c64 141 52 131
257 230 214 103 221 106 490 164 112 24 222 53 245 63 23 11 53 23 67 27 70
20 220 127 440 315 25 21 56 47 68 57 30 24 45 113 19 113 -12 0 -16 -9 -15
-34 1 -30 -8 -43 -83 -114 -103 -98 -191 -170 -285 -232 -104 -68 -328 -160
-393 -160 -14 0 -38 -4 -55 -9 -56 -17 -146 -28 -146 -18 0 6 15 28 33 51 19
23 53 70 78 106 75 110 101 141 200 240 160 158 257 230 311 230 10 0 26 4 36
9 21 11 238 59 273 60 15 1 44 -6 65 -15z m3164 -508 c493 -59 981 -193 1450
-399 110 -48 356 -171 430 -215 19 -11 53 -30 75 -42 134 -73 513 -344 660
-473 117 -102 304 -277 339 -317 17 -19 52 -55 77 -80 25 -25 66 -70 90 -100
24 -30 56 -68 71 -85 46 -52 61 -70 138 -170 77 -100 128 -170 157 -215 54
-83 105 -164 144 -228 24 -40 56 -91 71 -115 27 -42 208 -400 208 -411 0 -3
13 -34 29 -68 32 -67 122 -298 151 -388 24 -72 106 -358 113 -390 2 -14 20
-97 40 -185 61 -272 74 -396 87 -790 14 -439 -3 -651 -92 -1130 -54 -292 -181
-697 -297 -950 -16 -33 -32 -71 -36 -85 -4 -14 -39 -88 -78 -165 -97 -194
-100 -199 -109 -210 -5 -5 -31 -48 -59 -95 -70 -117 -181 -286 -247 -378 -80
-111 -143 -192 -209 -268 -43 -50 -94 -110 -115 -135 -45 -55 -302 -310 -343
-340 -16 -12 40 49 126 137 86 87 181 186 210 218 30 33 63 69 74 81 88 96
271 342 405 545 74 112 240 419 298 550 11 25 36 82 56 127 111 248 251 707
302 985 73 403 102 794 84 1125 -33 610 -133 1069 -352 1613 -17 41 -39 97
-50 125 -31 78 -181 373 -226 445 -23 36 -53 85 -68 110 -92 153 -280 422
-376 536 -203 242 -508 546 -728 724 -30 25 -57 47 -60 50 -7 7 -104 79 -185
136 -411 293 -954 551 -1430 679 -488 131 -704 167 -1120 185 -580 25 -1094
-41 -1660 -215 -125 -39 -307 -103 -378 -134 -67 -29 -76 -26 -41 12 17 17 42
47 56 66 29 39 94 65 318 132 335 98 648 161 965 193 88 9 174 18 190 20 77
11 717 -3 845 -18z m-135 -127 c499 -43 1004 -179 1535 -414 84 -37 380 -185
390 -195 3 -3 21 -13 40 -24 37 -20 321 -205 330 -215 3 -3 43 -35 90 -71 186
-141 393 -322 524 -459 45 -46 104 -107 131 -135 28 -28 79 -85 115 -126 36
-41 67 -77 70 -80 3 -3 17 -21 30 -40 13 -19 27 -37 30 -40 16 -15 134 -175
176 -240 27 -41 52 -77 55 -80 3 -3 17 -25 31 -50 14 -25 39 -69 57 -98 17
-29 31 -56 31 -59 0 -4 6 -14 14 -22 20 -23 187 -360 242 -488 140 -327 243
-679 309 -1063 64 -370 81 -824 45 -1172 -65 -619 -214 -1145 -477 -1686 -245
-506 -672 -1052 -1098 -1407 -66 -55 -122 -102 -125 -105 -29 -29 -143 -116
-265 -203 -82 -58 -155 -111 -162 -117 -7 -5 -14 -10 -17 -10 -2 0 -50 -27
-105 -60 -315 -187 -753 -374 -1106 -473 -695 -195 -1454 -223 -2185 -82 -666
130 -1366 453 -1905 881 -322 256 -660 605 -875 904 -33 47 -66 92 -73 100
-32 39 -161 246 -234 375 -83 146 -273 551 -273 581 0 7 -3 14 -7 16 -9 3 -57
139 -108 304 -87 281 -142 577 -180 974 -25 264 -16 649 20 885 47 298 56 356
66 420 29 187 136 545 232 780 81 197 231 499 318 640 36 58 203 309 216 324
7 9 49 63 93 120 123 159 204 251 368 417 91 92 132 131 132 122 0 -2 -51 -56
-112 -119 -157 -160 -319 -346 -403 -463 -11 -15 -34 -47 -51 -70 -53 -71
-180 -259 -206 -306 -14 -25 -46 -79 -70 -120 -40 -66 -160 -304 -196 -385
-173 -395 -303 -871 -361 -1315 -52 -402 -32 -958 49 -1385 86 -454 184 -742
395 -1170 243 -493 509 -855 925 -1260 385 -375 810 -663 1305 -885 327 -147
806 -282 1210 -341 279 -40 617 -49 970 -24 267 19 322 26 575 76 210 41 483
120 696 200 206 77 577 260 739 364 133 85 231 150 235 155 3 3 28 21 55 40
219 147 597 495 805 740 40 47 84 98 98 115 27 30 148 189 170 221 171 258
328 532 392 684 15 36 53 126 84 200 106 249 158 407 221 660 51 207 53 216
80 415 39 291 48 453 42 745 -11 504 -76 888 -226 1340 -161 480 -355 849
-678 1287 -29 39 -59 78 -66 85 -7 7 -28 33 -47 58 -164 212 -421 473 -655
665 -163 134 -435 325 -570 400 -27 15 -88 49 -135 75 -434 241 -1043 441
-1510 495 -503 59 -682 67 -975 41 -198 -18 -465 -52 -565 -72 -348 -70 -836
-238 -1119 -385 -63 -32 -117 -57 -120 -54 -6 6 21 27 68 51 20 10 86 46 146
79 222 122 623 289 875 364 41 12 86 27 100 31 54 20 235 59 370 80 30 5 93
15 140 23 47 9 123 20 170 26 47 7 114 16 150 21 71 9 333 4 505 -11z m-3120
-4179 c79 -36 149 -118 224 -265 28 -55 30 -63 20 -102 -12 -47 -29 -48 -29
-4 0 16 -8 39 -18 51 l-19 23 -15 -22 c-16 -22 -16 -22 -52 28 -29 39 -47 53
-85 66 -52 17 -145 78 -135 87 3 4 21 0 39 -8 47 -19 75 -18 75 4 0 26 -57 71
-107 85 -47 12 -52 27 -18 64 23 25 53 23 120 -7z m3978 -94 c50 -22 99 -75
119 -130 20 -54 22 -54 -100 -58 l-83 -2 -22 37 c-52 91 -217 83 -217 -11 0
-46 34 -66 160 -97 166 -40 243 -83 280 -155 40 -78 18 -199 -48 -262 -67 -65
-112 -81 -239 -86 -219 -9 -318 37 -368 170 -27 71 -21 76 89 80 95 3 96 3
105 -22 25 -74 103 -118 182 -105 86 15 119 119 54 167 -13 10 -74 31 -136 48
-138 38 -203 72 -246 128 -29 38 -33 51 -33 103 0 33 7 73 14 88 19 37 80 90
125 108 77 33 287 32 364 -1z m-4028 -7 c40 -36 38 -56 -5 -34 -16 8 -39 15
-51 15 -18 0 -21 -4 -16 -29 6 -28 6 -28 -53 -34 -51 -4 -67 -11 -117 -50 -94
-74 -159 -89 -89 -21 45 44 39 58 -23 50 -32 -4 -56 -16 -81 -39 -46 -44 -63
-42 -68 6 -3 35 1 43 45 83 69 64 135 83 295 83 l127 1 36 -31z m-1135 -124
c0 -134 1 -145 18 -145 10 0 30 15 44 33 15 17 35 42 45 53 10 12 41 48 68 80
28 32 64 74 80 92 l30 33 138 -3 139 -3 -131 -135 c-72 -74 -131 -140 -131
-146 0 -6 63 -113 140 -238 77 -125 140 -231 140 -236 0 -6 -54 -10 -130 -10
l-129 0 -83 165 c-46 91 -86 165 -91 165 -4 0 -39 -33 -77 -72 l-70 -73 0 -92
0 -93 -110 0 -110 0 0 385 0 385 110 0 110 0 0 -145z m1860 92 c20 -28 83
-122 140 -207 156 -231 150 -233 150 45 l0 215 100 0 100 0 0 -385 0 -386
-106 3 -106 3 -134 195 c-74 107 -137 203 -141 213 -3 9 -14 17 -24 17 -18 0
-19 -11 -19 -215 l0 -215 -100 0 c-55 0 -100 3 -100 8 0 4 0 117 -1 252 0 135
0 305 0 378 l1 132 103 0 102 0 35 -53z m1225 42 c50 -14 100 -51 120 -89 22
-42 19 -128 -5 -167 -10 -18 -38 -44 -60 -59 -22 -15 -39 -31 -38 -35 2 -4 28
-21 58 -36 38 -20 62 -41 77 -69 58 -102 0 -250 -112 -284 -26 -8 -136 -14
-307 -17 l-268 -5 0 386 0 386 248 0 c147 0 263 -5 287 -11z m565 -374 l0
-385 -110 0 -110 0 0 385 0 385 110 0 110 0 0 -385z m875 300 l0 -80 -125 -2
-125 -2 -3 -300 -2 -301 -105 0 -105 0 0 300 0 299 -127 3 -128 3 -3 83 -3 82
363 -2 363 -3 0 -80z m1104 -42 c13 -71 31 -168 40 -217 9 -49 22 -91 29 -94
16 -5 25 19 77 213 25 94 51 182 57 198 l10 27 104 0 c89 0 103 -2 107 -17 76
-272 117 -417 122 -421 9 -9 35 21 35 40 0 10 6 51 14 91 17 85 42 217 51 270
l6 37 99 0 c85 0 100 -2 100 -16 0 -9 -12 -64 -26 -123 -14 -58 -32 -137 -39
-176 -8 -38 -27 -128 -43 -200 -16 -71 -35 -158 -42 -192 l-13 -63 -109 0
c-125 0 -114 -9 -147 120 -10 41 -33 122 -49 180 -17 58 -36 124 -42 148 -8
32 -15 42 -28 40 -13 -2 -32 -60 -83 -243 l-66 -240 -111 -3 -110 -3 -16 73
c-9 40 -22 102 -30 138 -41 192 -106 478 -123 543 -4 15 5 17 99 17 l103 0 24
-127z m1441 123 c0 -2 63 -171 140 -376 77 -204 140 -376 140 -381 0 -5 -49
-9 -110 -9 l-109 0 -19 63 -18 62 -154 0 -154 0 -20 -62 -20 -63 -108 0 c-59
0 -108 2 -108 4 0 5 55 156 76 206 50 124 164 435 164 446 0 8 5 14 10 14 6 0
10 7 10 15 0 9 7 31 14 50 l15 35 125 0 c70 0 126 -2 126 -4z m898 -8 c63 -15
106 -50 132 -106 19 -40 22 -59 18 -129 -4 -72 -8 -89 -34 -125 -17 -25 -49
-52 -79 -67 -43 -23 -65 -27 -180 -31 l-130 -5 -3 -147 -3 -148 -109 0 -110 0
0 385 0 385 226 0 c138 0 243 -5 272 -12z m-7148 -125 c0 -5 -16 -19 -35 -33
-53 -39 -57 -70 -10 -70 l24 0 -24 -42 c-23 -40 -23 -48 -18 -160 4 -85 3
-118 -5 -118 -7 0 -14 11 -17 25 -3 14 -7 36 -10 50 -5 25 -28 34 -40 16 -14
-24 -22 -106 -13 -138 12 -44 -9 -66 -29 -30 l-12 22 -2 -25 c-1 -21 -2 -20
-11 10 -18 64 -27 78 -22 35 3 -31 2 -35 -5 -19 -5 11 -12 45 -16 75 -9 77 14
153 82 272 49 84 64 103 98 118 43 20 65 24 65 12z m640 -38 c1 29 15 1 25
-50 4 -22 10 -35 12 -28 2 6 0 29 -6 49 -12 43 -6 59 8 23 5 -13 10 -17 11 -9
1 28 19 -11 31 -68 13 -66 -5 -149 -50 -223 -17 -27 -31 -51 -31 -53 0 -3 -16
-31 -36 -64 -30 -52 -41 -61 -77 -70 -23 -6 -43 -9 -46 -6 -3 2 12 18 32 35
49 41 49 66 0 60 -18 -3 -16 8 9 54 15 27 21 54 19 85 -7 134 -6 183 7 187 8
3 12 -7 12 -29 0 -41 21 -74 43 -65 20 8 33 105 19 146 -11 32 -2 54 9 24 7
-16 8 -16 9 2z m-740 -362 c16 -51 38 -67 47 -34 3 12 8 21 12 21 3 0 21 -23
40 -50 21 -31 44 -53 60 -57 45 -11 105 -41 135 -68 34 -32 26 -45 -13 -22
-39 23 -71 22 -71 -2 0 -27 62 -78 112 -92 24 -6 37 -14 29 -17 -11 -4 -11 -6
0 -13 11 -7 10 -9 -4 -9 -10 0 -15 -4 -12 -10 3 -5 -3 -10 -15 -10 -12 0 -18
-4 -15 -10 8 -13 -1 -13 -59 5 -89 27 -141 78 -225 219 -59 101 -67 127 -55
174 9 33 17 27 34 -25z m630 -63 c0 -6 -11 -15 -24 -21 -27 -13 -52 -52 -42
-67 11 -18 106 14 141 48 30 29 33 30 49 15 25 -26 10 -65 -45 -116 -68 -63
-127 -79 -292 -79 -124 0 -128 1 -157 27 -41 36 -41 59 0 38 37 -19 80 -20 80
-1 0 8 -4 18 -10 21 -23 14 -6 23 55 27 57 3 69 8 98 36 28 28 118 80 140 81
4 1 7 -4 7 -9z m-2320 -890 c81 -403 217 -817 371 -1123 221 -441 307 -582
533 -882 106 -139 151 -202 134 -185 -12 11 -96 109 -133 154 -22 27 -45 54
-50 60 -23 24 -247 367 -300 460 -52 91 -171 324 -208 406 -8 19 -34 78 -58
130 -83 187 -164 420 -237 680 -48 168 -102 433 -101 488 1 51 2 45 49 -188z"/>
<path d="M3950 5319 l0 -91 101 4 c92 3 103 5 120 27 11 14 19 39 19 61 0 30
-6 44 -31 64 -28 24 -38 26 -120 26 l-89 0 0 -91z"/>
<path d="M3950 5005 l0 -95 89 0 c132 0 181 26 181 94 0 79 -30 96 -170 96
l-100 0 0 -95z"/>
<path d="M8076 5258 c-16 -51 -36 -119 -46 -150 -10 -31 -15 -60 -12 -63 3 -3
50 -5 104 -5 85 0 98 2 98 17 0 9 -19 78 -42 155 -52 172 -63 177 -102 46z"/>
<path d="M8870 5305 l0 -105 65 0 c111 0 155 30 155 105 0 75 -44 105 -155
105 l-65 0 0 -105z"/>
</g>
</svg>
